<svg width="54" height="55" viewBox="0 0 54 55" fill="none" xmlns="http://www.w3.org/2000/svg">
<g id="Frame">
<path id="Union" fill-rule="evenodd" clip-rule="evenodd" d="M27.9816 1.19981C27.3351 1.06686 26.6684 1.06686 26.022 1.19981C25.2747 1.35349 24.6069 1.72757 24.0759 2.02497L23.9312 2.10582L5.93566 12.1033C5.88591 12.131 5.83464 12.1592 5.78211 12.1881C5.22004 12.4977 4.51332 12.887 3.9706 13.4759C3.50137 13.9851 3.14628 14.5886 2.92905 15.246C2.6778 16.0065 2.68074 16.8133 2.68308 17.455C2.6833 17.515 2.68351 17.5735 2.68351 17.6304V37.3698C2.68351 37.4267 2.6833 37.4852 2.68308 37.5452C2.68074 38.1869 2.6778 38.9937 2.92905 39.7542C3.14628 40.4116 3.50137 41.0151 3.9706 41.5243C4.51332 42.1132 5.22005 42.5025 5.78212 42.812C5.83465 42.841 5.88591 42.8692 5.93566 42.8969L23.9312 52.8944L24.0759 52.9752C24.6069 53.2726 25.2748 53.6467 26.022 53.8004C26.6684 53.9333 27.3351 53.9333 27.9816 53.8004C28.7288 53.6467 29.3967 53.2726 29.9276 52.9752L30.0724 52.8944L48.0679 42.8969C48.0899 42.8846 48.1121 42.8723 48.1347 42.8598C48.1632 42.8441 48.1921 42.8282 48.2214 42.8121C48.7835 42.5025 49.4902 42.1132 50.0329 41.5243C50.5022 41.0151 50.8573 40.4116 51.0745 39.7542C51.3257 38.9937 51.3228 38.1869 51.3204 37.5452C51.3202 37.4852 51.32 37.4267 51.32 37.3698V17.6304C51.32 17.5735 51.3202 17.515 51.3204 17.455C51.3228 16.8133 51.3257 16.0065 51.0745 15.246C50.8573 14.5886 50.5022 13.9851 50.0329 13.4759C49.4902 12.887 48.7835 12.4977 48.2214 12.1881L48.2194 12.187C48.1676 12.1585 48.117 12.1306 48.0679 12.1033L30.0724 2.10582L29.9276 2.02496C29.3967 1.72757 28.7288 1.35349 27.9816 1.19981ZM26.2932 6.35741C26.6617 6.15268 26.8498 6.04923 26.9901 5.98155L27.0018 5.97598L27.0134 5.98155C27.1537 6.04923 27.3418 6.15268 27.7104 6.35741L43.8807 15.3409L27.0017 24.7181L10.1228 15.341L26.2932 6.35741ZM7.54716 19.4739L24.5699 28.9309L24.5699 47.6854L8.29766 38.6453C7.90868 38.4292 7.71009 38.3177 7.57076 38.2289L7.55899 38.2214L7.55811 38.2074C7.54818 38.0425 7.54716 37.8148 7.54716 37.3698V19.4739Z" fill="white"/>
</g>
</svg>
